<?xml version="1.0" encoding="UTF-8"?>
<svg version="1.1" xmlns="http://www.w3.org/2000/svg" width="1000" height="1000">
<path d="M0 0 C2.79685475 0.0091647 5.59287247 0.00230466 8.38964844 -0.02050781 C29.46612248 -0.19131933 50.45671322 0.32008345 70.52075195 7.44604492 C72.24114964 7.97215537 73.96455179 8.48869714 75.69262695 8.98901367 C91.32833874 13.58808115 106.57352586 18.93676904 121.52075195 25.44604492 C121.52075195 26.10604492 121.52075195 26.76604492 121.52075195 27.44604492 C122.28645508 27.65487305 123.0521582 27.86370117 123.84106445 28.07885742 C139.40235402 33.86065291 153.68647488 44.07472317 166.52075195 54.44604492 C167.53395508 55.24913086 168.5471582 56.0522168 169.59106445 56.87963867 C178.36817192 63.93310804 186.63397072 71.4784713 194.64575195 79.38354492 C195.22695801 79.95169922 195.80816406 80.51985352 196.40698242 81.10522461 C197.81807513 82.51334302 199.17475666 83.97557671 200.52075195 85.44604492 C200.52075195 86.10604492 200.52075195 86.76604492 200.52075195 87.44604492 C201.10598633 87.67678711 201.6912207 87.9075293 202.29418945 88.14526367 C205.09681865 89.78258915 206.30760778 91.58736946 208.14575195 94.25854492 C211.08726721 98.45604914 214.13580061 102.50283481 217.33325195 106.50854492 C239.52075195 134.86643096 239.52075195 134.86643096 239.52075195 145.44604492 C240.18075195 145.77604492 240.84075195 146.10604492 241.52075195 146.44604492 C244.90077945 152.59284598 247.43413799 159.01136078 249.89575195 165.57104492 C250.28714355 166.61276855 250.67853516 167.65449219 251.08178711 168.7277832 C254.61704636 178.343398 257.36181302 188.09303453 259.86743164 198.01928711 C260.49393543 200.34643495 261.23600366 202.60545017 261.99731445 204.89135742 C267.08964779 222.19998797 267.02572629 239.88034852 266.96679688 257.75927734 C266.95763001 260.66679747 266.96449383 263.57351266 266.98730469 266.48095703 C267.31882448 308.95526959 267.31882448 308.95526959 260.52075195 324.44604492 C260.03517938 326.11936937 259.57801252 327.8011315 259.14575195 329.48901367 C254.67417825 346.45029962 249.61433486 363.79936352 241.52075195 379.44604492 C240.86075195 379.44604492 240.20075195 379.44604492 239.52075195 379.44604492 C239.1340332 380.71641602 239.1340332 380.71641602 238.73950195 382.01245117 C232.94403355 398.34006889 221.75943588 412.95660486 211.0090332 426.32495117 C208.91855844 428.94706944 206.92116201 431.60353684 204.95825195 434.32104492 C204.15387695 435.35229492 203.34950195 436.38354492 202.52075195 437.44604492 C201.86075195 437.44604492 201.20075195 437.44604492 200.52075195 437.44604492 C200.26583984 438.02475342 200.01092773 438.60346191 199.74829102 439.19970703 C197.42421062 443.45266322 193.68560617 446.61710645 190.27075195 450.00854492 C189.460979 450.81485352 188.65120605 451.62116211 187.81689453 452.4519043 C181.59956411 458.55844051 175.15082046 464.05767737 168.14575195 469.22680664 C166.5223165 470.44487104 164.94105422 471.70319378 163.36450195 472.98120117 C154.94883773 479.75834822 145.94723346 485.1902969 136.52075195 490.44604492 C135.86349121 490.81455566 135.20623047 491.18306641 134.52905273 491.56274414 C123.99296305 497.44604492 123.99296305 497.44604492 121.52075195 497.44604492 C121.52075195 498.10604492 121.52075195 498.76604492 121.52075195 499.44604492 C103.06766905 507.09817027 84.48796975 514.40471039 64.95825195 518.84057617 C62.46368418 519.4174202 62.46368418 519.4174202 59.89306641 520.3840332 C43.55945934 525.52782461 25.97564825 524.95020541 9.04150391 524.89208984 C6.24464916 524.88292515 3.44863144 524.88978519 0.65185547 524.91259766 C-20.42461857 525.08340918 -41.41520932 524.57200639 -61.47924805 517.44604492 C-63.19964573 516.91993447 -64.92304789 516.4033927 -66.65112305 515.90307617 C-82.28683483 511.30400869 -97.53202195 505.9553208 -112.47924805 499.44604492 C-112.47924805 498.78604492 -112.47924805 498.12604492 -112.47924805 497.44604492 C-113.24495117 497.2372168 -114.0106543 497.02838867 -114.79956055 496.81323242 C-130.36085012 491.03143693 -144.64497097 480.81736667 -157.47924805 470.44604492 C-158.49245117 469.64295898 -159.5056543 468.83987305 -160.54956055 468.01245117 C-169.32666801 460.9589818 -177.59246682 453.41361855 -185.60424805 445.50854492 C-186.1854541 444.94039062 -186.76666016 444.37223633 -187.36547852 443.78686523 C-188.77657122 442.37874683 -190.13325276 440.91651313 -191.47924805 439.44604492 C-191.47924805 438.78604492 -191.47924805 438.12604492 -191.47924805 437.44604492 C-192.06448242 437.21530273 -192.6497168 436.98456055 -193.25268555 436.74682617 C-196.05531474 435.1095007 -197.26610388 433.30472039 -199.10424805 430.63354492 C-202.04576331 426.43604071 -205.0942967 422.38925503 -208.29174805 418.38354492 C-230.47924805 390.02565889 -230.47924805 390.02565889 -230.47924805 379.44604492 C-231.13924805 379.11604492 -231.79924805 378.78604492 -232.47924805 378.44604492 C-235.85927554 372.29924387 -238.39263409 365.88072907 -240.85424805 359.32104492 C-241.24563965 358.27932129 -241.63703125 357.23759766 -242.0402832 356.16430664 C-245.57554245 346.54869185 -248.32030911 336.79905531 -250.82592773 326.87280273 C-251.45243152 324.54565489 -252.19449975 322.28663967 -252.95581055 320.00073242 C-258.04814388 302.69210188 -257.98422239 285.01174132 -257.92529297 267.1328125 C-257.9161261 264.22529238 -257.92298992 261.31857718 -257.94580078 258.41113281 C-258.27732057 215.93682026 -258.27732057 215.93682026 -251.47924805 200.44604492 C-250.99367547 198.77272048 -250.53650862 197.09095834 -250.10424805 195.40307617 C-245.63267435 178.44179023 -240.57283095 161.09272633 -232.47924805 145.44604492 C-231.81924805 145.44604492 -231.15924805 145.44604492 -230.47924805 145.44604492 C-230.22143555 144.59913086 -229.96362305 143.7522168 -229.69799805 142.87963867 C-223.90252964 126.55202095 -212.71793197 111.93548498 -201.9675293 98.56713867 C-199.87705453 95.9450204 -197.87965811 93.28855301 -195.91674805 90.57104492 C-194.71018555 89.02416992 -194.71018555 89.02416992 -193.47924805 87.44604492 C-192.81924805 87.44604492 -192.15924805 87.44604492 -191.47924805 87.44604492 C-191.22433594 86.86733643 -190.96942383 86.28862793 -190.70678711 85.69238281 C-188.38270672 81.43942663 -184.64410227 78.2749834 -181.22924805 74.88354492 C-180.01458862 73.67408203 -180.01458862 73.67408203 -178.77539062 72.44018555 C-172.5580602 66.33364933 -166.10931655 60.83441247 -159.10424805 55.6652832 C-157.48081259 54.4472188 -155.89955031 53.18889606 -154.32299805 51.91088867 C-145.90733382 45.13374162 -136.90572955 39.70179294 -127.47924805 34.44604492 C-126.8219873 34.07753418 -126.16472656 33.70902344 -125.48754883 33.3293457 C-114.95145915 27.44604492 -114.95145915 27.44604492 -112.47924805 27.44604492 C-112.47924805 26.78604492 -112.47924805 26.12604492 -112.47924805 25.44604492 C-94.02616514 17.79391958 -75.44646584 10.48737945 -55.91674805 6.05151367 C-53.42218028 5.47466964 -53.42218028 5.47466964 -50.8515625 4.50805664 C-34.51795544 -0.63573477 -16.93414434 -0.05811557 0 0 Z " fill="#102537" transform="translate(474.479248046875,161.553955078125)"/>
<path d="M0 0 C0.97055328 0.00215515 1.94110657 0.0043103 2.94107056 0.00653076 C17.26809899 0.05756229 31.29856913 0.40040566 45.375 3.3125 C46.35275391 3.51117676 47.33050781 3.70985352 48.33789062 3.91455078 C105.29341724 15.83236082 159.37641408 45.83080938 195.375 92.3125 C196.55449219 93.78396484 196.55449219 93.78396484 197.7578125 95.28515625 C215.80763549 117.96323034 242.375 156.09414566 242.375 186.3125 C82.655 186.3125 -77.065 186.3125 -241.625 186.3125 C-234.75563412 151.96567059 -216.63907612 119.29073337 -194.625 92.3125 C-194.12500488 91.69681152 -193.62500977 91.08112305 -193.10986328 90.44677734 C-182.50183226 77.48140609 -170.8832823 65.58061651 -157.625 55.3125 C-156.64402344 54.52617187 -155.66304688 53.73984375 -154.65234375 52.9296875 C-124.17455732 28.67195521 -88.24856743 12.57488595 -50.25 4.5 C-49.33710205 4.30510986 -48.4242041 4.11021973 -47.48364258 3.90942383 C-31.66702676 0.73153476 -16.09199699 -0.06438934 0 0 Z " fill="#FB5A0D" transform="translate(478.625,173.6875)"/>
<path d="M0 0 C9.9 0 19.8 0 30 0 C33.1875 10.5 33.1875 10.5 34.23168945 13.94116211 C35.64684824 18.59421675 37.06844732 23.24427725 38.54296875 27.87890625 C38.8838855 28.95205078 38.8838855 28.95205078 39.23168945 30.046875 C39.83587592 31.93991615 40.44510794 33.83134484 41.0546875 35.72265625 C41.94603523 38.81290725 42.54490128 41.81915046 43 45 C43.66 45 44.32 45 45 45 C45.226875 43.83984375 45.45375 42.6796875 45.6875 41.484375 C47.13429836 34.97887676 49.24524463 28.67891438 51.31347656 22.35107422 C52.00260981 20.24201279 52.68538335 18.13097207 53.3671875 16.01953125 C55.11949383 10.61764989 56.8893681 5.27657975 59 0 C67.91 0 76.82 0 86 0 C87.36977104 4.3740156 88.73916898 8.74814469 90.10766602 13.12255859 C90.57197356 14.60634849 91.03648668 16.09007409 91.5012207 17.57373047 C92.60932173 21.1115428 93.71512217 24.65003314 94.81494141 28.19042969 C95.53509422 30.50548213 96.26003026 32.81906336 96.99365234 35.12988281 C97.26773926 36.00741211 97.54182617 36.88494141 97.82421875 37.7890625 C98.05584717 38.5207666 98.28747559 39.2524707 98.52612305 40.00634766 C99 42 99 42 99 46 C99.66 46 100.32 46 101 46 C101.226875 44.82695312 101.45375 43.65390625 101.6875 42.4453125 C103.24794672 35.42604952 105.68234903 28.67135486 108 21.875 C108.68074933 19.86809676 109.36013276 17.86074569 110.0378418 15.85281372 C110.65150527 14.03623954 111.26899341 12.22095868 111.88671875 10.40576172 C113.01162122 6.96444823 114.00537125 3.48120062 115 0 C123.91 0 132.82 0 142 0 C140.75439231 5.60523462 139.54149353 10.77628135 137.8125 16.1875 C137.49430298 17.18837646 137.49430298 17.18837646 137.16967773 18.20947266 C136.70260102 19.67742804 136.23386379 21.14485587 135.76367188 22.61181641 C134.94555895 25.17025012 134.13622793 27.73135641 133.328125 30.29296875 C130.31923744 39.81495613 127.25021346 49.31247969 124.06762695 58.77783203 C122.24136598 64.22627015 120.5186706 69.70125012 118.859375 75.203125 C117.95377516 78.15044083 116.97502727 81.0749182 116 84 C105.77 84 95.54 84 85 84 C84.01 81.03 83.02 78.06 82 75 C81.60039062 73.83597656 81.20078125 72.67195313 80.7890625 71.47265625 C77.46972593 61.74855952 74.67043203 51.92037092 72 42 C70.09064202 45.51216766 68.87433529 49.14572761 67.625 52.9375 C67.40730957 53.5977417 67.18961914 54.2579834 66.96533203 54.93823242 C63.80569877 64.57292127 60.91037355 74.28792217 58 84 C53.62178091 84.0740719 49.24389218 84.12856375 44.86523438 84.16479492 C43.37526091 84.179896 41.88533199 84.20037858 40.39550781 84.22631836 C38.2557477 84.26264584 36.11657434 84.27971221 33.9765625 84.29296875 C32.68830566 84.3086792 31.40004883 84.32438965 30.07275391 84.34057617 C29.05874512 84.22818604 28.04473633 84.1157959 27 84 C24.72066546 80.5809982 23.77964968 77.21694596 22.6875 73.3125 C22.24321134 71.76663246 21.79787441 70.22106587 21.3515625 68.67578125 C21.12629883 67.89283691 20.90103516 67.10989258 20.66894531 66.30322266 C17.84076621 56.56561621 14.66771738 46.97642125 11.23510742 37.43676758 C9.19462037 31.70146876 7.44018616 25.90776603 5.76489258 20.05664062 C4.23386791 14.72153627 2.52379682 9.46561379 0.69921875 4.22265625 C0 2 0 2 0 0 Z " fill="#FCFDFD" transform="translate(238,386)"/>
<path d="M0 0 C154.44 0 308.88 0 468 0 C466.43297876 4.70106371 464.84037311 9.39906723 463 14 C311.86 14 160.72 14 5 14 C0 2 0 2 0 0 Z " fill="#4389D9" transform="translate(245,513)"/>
<path d="M0 0 C159.72 0 319.44 0 484 0 C481 12 481 12 480 13 C477.4720913 13.09884458 474.97150002 13.13177558 472.44308376 13.12304783 C471.63826404 13.12420167 470.83344433 13.12535552 470.00423613 13.12654433 C467.27245221 13.12921841 464.54072571 13.12468237 461.8089447 13.12025452 C459.84467653 13.12069006 457.88040842 13.12156465 455.91614062 13.12284368 C450.49124349 13.12509202 445.0663659 13.12106276 439.64147127 13.11606562 C433.80162515 13.11176614 427.96178023 13.11320719 422.12193298 13.1139679 C411.9949562 13.11449345 401.86798583 13.11134337 391.74101067 13.10573006 C377.09891989 13.09761931 362.45683115 13.09499693 347.81473834 13.09374207 C324.06163046 13.09163987 300.30852592 13.08489754 276.55541992 13.07543945 C253.47501646 13.06625982 230.39461391 13.05917385 207.31420898 13.05493164 C206.6031699 13.05480011 205.89213081 13.05466859 205.15954508 13.05453308 C198.01920634 13.05321459 190.8788676 13.05193877 183.73852885 13.05069422 C169.19194257 13.04815779 154.64535634 13.04533653 140.09877014 13.04234314 C139.4298947 13.04220585 138.76101927 13.04206856 138.07187488 13.04192711 C93.38124851 13.03272148 48.69062405 13.01685496 4 13 C2.26436339 8.54771478 0.94389853 4.71949266 0 0 Z " fill="#4389D9" transform="translate(237,489)"/>
<path d="M0 0 C12.00375 -0.12375 12.00375 -0.12375 24.25 -0.25 C28.00165527 -0.30462402 28.00165527 -0.30462402 31.82910156 -0.36035156 C33.84960069 -0.37205268 35.87010938 -0.38224112 37.890625 -0.390625 C38.90882324 -0.41108887 39.92702148 -0.43155273 40.97607422 -0.45263672 C50.5800608 -0.45721659 60.49310624 1.68738479 68 8 C75.53466945 15.59175028 78.35840867 20.65257231 78.375 31.3125 C78.39949219 32.12912109 78.42398438 32.94574219 78.44921875 33.78710938 C78.4878598 41.86952956 75.55410703 48.11918079 70 54 C68.04148656 55.39355764 66.04872887 56.74282547 64 58 C67.13008559 63.66758215 70.61986812 69.01664745 74.25 74.375 C75.34062325 75.98557155 76.42928129 77.59747627 77.515625 79.2109375 C77.99290039 79.91524902 78.47017578 80.61956055 78.96191406 81.34521484 C80 83 80 83 80 84 C75.87518183 84.2740934 71.75394478 84.47243071 67.62207031 84.60424805 C66.22074028 84.65922429 64.82003164 84.73405021 63.42089844 84.82983398 C58.79426041 85.13838652 54.53599003 85.16343537 50 84 C46.3527515 80.80865756 44.21871982 77.26930001 42 73 C41.00187254 71.29057192 40.00222636 69.58202815 39 67.875 C38.608125 67.15054688 38.21625 66.42609375 37.8125 65.6796875 C35.42310637 63.13773384 35.42310637 63.13773384 28 63 C28 69.93 28 76.86 28 84 C18.76 84 9.52 84 0 84 C0 56.28 0 28.56 0 0 Z " fill="#FDFEFE" transform="translate(557,386)"/>
<path d="M0 0 C5.20567882 3.61637651 8.6086648 7.52521315 10.63671875 13.609375 C11.38111728 20.78750367 11.29837682 26.10460811 6.73046875 31.890625 C5.27880176 33.8322742 5.27880176 33.8322742 5.63671875 37.609375 C7.11874408 39.71741608 7.11874408 39.71741608 9.07421875 41.671875 C14.14496446 47.00896291 14.10942902 51.76000006 14.03515625 58.95703125 C13.31506809 65.55783934 10.4955348 70.12962848 5.515625 74.44921875 C-6.66869277 83.0859362 -19.92732791 83.63195652 -34.36328125 82.609375 C-44.96283346 80.68717641 -53.09260791 75.27765873 -59.36328125 66.609375 C-62.2446643 60.5828203 -62.5555399 53.68066733 -60.67578125 47.26171875 C-58.45726451 42.4641763 -55.24702154 39.14004799 -51.36328125 35.609375 C-52.53890625 34.248125 -52.53890625 34.248125 -53.73828125 32.859375 C-58.25267205 27.63218566 -58.82195027 23.48356463 -58.6640625 16.64453125 C-58.00896986 10.03405099 -55.35094966 6.14098509 -50.36328125 1.859375 C-36.11183273 -8.21810559 -15.04676111 -8.85396191 0 0 Z " fill="#FCFCFC" transform="translate(704.36328125,389.390625)"/>
<path d="M0 0 C147.18 0 294.36 0 446 0 C444.02 3.96 442.04 7.92 440 12 C296.78 12 153.56 12 6 12 C4.02 8.04 2.04 4.08 0 0 Z " fill="#4389D9" transform="translate(256,538)"/>
<path d="M0 0 C22.44 0 44.88 0 68 0 C68 6.93 68 13.86 68 21 C54.8 21 41.6 21 28 21 C28 24.3 28 27.6 28 31 C39.88 31 51.76 31 64 31 C64 37.93 64 44.86 64 52 C52.12 52 40.24 52 28 52 C28 55.3 28 58.6 28 62 C41.86 62 55.72 62 70 62 C70 69.26 70 76.52 70 84 C46.9 84 23.8 84 0 84 C0 56.28 0 28.56 0 0 Z " fill="#FCFCFC" transform="translate(387,386)"/>
<path d="M0 0 C138.6 0 277.2 0 420 0 C413 11 413 11 409.53538132 12.3788408 C408.30850224 12.38062668 407.08162315 12.38241256 405.81756592 12.38425255 C405.12610647 12.4002404 404.43464702 12.41622825 403.72223425 12.43270057 C401.4094457 12.47279554 399.10471813 12.43475153 396.79199219 12.39682007 C395.11622902 12.40949871 393.44049644 12.42697197 391.76482773 12.44881976 C387.16428517 12.49474796 382.56625177 12.47204773 377.96570015 12.43797135 C373.00296138 12.4130941 368.04065578 12.45149267 363.07800293 12.48175049 C353.35801549 12.53068692 343.63896186 12.52008928 333.91893768 12.48821144 C326.0200585 12.4633778 318.12144119 12.45999617 310.22253418 12.47197342 C309.09870701 12.47365898 307.97487983 12.47534455 306.81699729 12.47708119 C304.53402607 12.48059814 302.25105493 12.48416448 299.96808386 12.48777969 C278.5560978 12.51915347 257.14462961 12.48307131 235.73272848 12.42397566 C217.35671587 12.37482921 198.98146757 12.38336531 180.60546875 12.43408203 C159.27062009 12.49293737 137.93622542 12.51613216 116.60130692 12.48234713 C114.32669329 12.47884306 112.05207959 12.47538498 109.77746582 12.47197342 C108.65828695 12.47027639 107.53910808 12.46857936 106.3860147 12.4668309 C98.49579844 12.45732965 90.60586994 12.47337185 82.71569824 12.4992485 C73.10109243 12.53008722 63.48747451 12.5217809 53.87298203 12.46316032 C48.96631754 12.43423073 44.06130044 12.42295732 39.15464783 12.45930099 C34.66304692 12.49206743 30.17462053 12.47410676 25.68330812 12.41554792 C24.05826728 12.40325304 22.43295856 12.4095318 20.80808973 12.43618159 C18.59573313 12.46968556 16.39422385 12.43539331 14.18243408 12.38425255 C12.955555 12.38246667 11.72867592 12.3806808 10.46461868 12.3788408 C7 11 7 11 0 0 Z " fill="#4389D9" transform="translate(269,561)"/>
<path d="M0 0 C4.03384025 2.91002129 7.01136013 6.27578222 10.0625 10.1875 C6.05842273 14.28741955 2.00440998 18.3417531 -2.1875 22.25 C-2.81140625 22.83910156 -3.4353125 23.42820312 -4.078125 24.03515625 C-5.9375 25.1875 -5.9375 25.1875 -8.03125 24.98828125 C-9.9375 24.1875 -9.9375 24.1875 -12.1875 22.3125 C-17.41826887 18.27054223 -23.07847855 16.52187224 -29.69921875 16.7734375 C-35.26730705 17.80348525 -38.9711053 20.94853243 -42.375 25.3125 C-45.69330235 31.41817632 -46.083199 38.07170086 -44.21875 44.76953125 C-41.65406506 51.00543858 -38.12632871 54.46119441 -31.9375 57.1875 C-25.08012976 58.3348421 -18.96516305 56.42478015 -12.9375 53.1875 C-11.58650897 51.87206137 -10.24544331 50.54574882 -8.9375 49.1875 C-5.75645848 49.56605944 -4.04826354 50.68841225 -1.7734375 52.875 C-0.92652344 53.67550781 -0.92652344 53.67550781 -0.0625 54.4921875 C0.515 55.05164063 1.0925 55.61109375 1.6875 56.1875 C5.54971484 60.12876037 5.54971484 60.12876037 10.0625 63.1875 C6.85753445 70.60517799 0.02989533 75.05983458 -7.1875 78.125 C-19.27864835 82.84310683 -35.15731767 83.40687564 -47.26953125 78.50390625 C-58.94414761 72.74351721 -68.38636203 64.7630128 -72.9375 52.1875 C-76.6023527 39.61326402 -75.74257075 27.08061853 -69.625 15.4375 C-63.08471638 4.59490591 -53.72898355 -2.47409479 -41.5 -6.15234375 C-27.30129748 -8.78346297 -12.462651 -7.696306 0 0 Z " fill="#FBFCFC" transform="translate(538.9375,390.8125)"/>
<path d="M0 0 C127.38 0 254.76 0 386 0 C381.79490249 8.41019502 381.79490249 8.41019502 378 11 C373.12257553 12.06541969 368.25364713 11.95446715 363.28567505 11.90234375 C361.76000086 11.91184363 360.23434309 11.92438749 358.70871627 11.93971062 C354.51879337 11.97282783 350.32994645 11.96223281 346.13997245 11.94439077 C341.62035627 11.9326783 337.10096771 11.96116545 332.5814209 11.98440552 C323.72810302 12.02326611 314.87517543 12.02393927 306.02179755 12.01056707 C298.82612656 12.00022977 291.63057012 12.00280135 284.43490219 12.0145874 C283.41114126 12.01623748 282.38738032 12.01788756 281.33259632 12.01958764 C279.25288135 12.02297029 277.1731664 12.0263712 275.09345149 12.02979016 C255.58532075 12.06010559 236.07741008 12.04592767 216.56928907 12.01761937 C198.72079171 11.9929923 180.87283061 12.02055311 163.02440836 12.07332373 C144.69984128 12.12709666 126.37552278 12.14769181 108.05087936 12.1314888 C105.97816273 12.12976224 103.90544605 12.12808739 101.83272934 12.12646484 C100.81290416 12.12566634 99.79307899 12.12486784 98.74235002 12.12404513 C91.55644797 12.12057934 84.37078722 12.13873566 77.18494034 12.16552734 C68.42575883 12.19775222 59.66726928 12.19832034 50.90810908 12.15810478 C46.43891013 12.13843005 41.9709382 12.13318787 37.50179672 12.16705704 C33.40890512 12.19768242 29.31830327 12.18664056 25.2255535 12.14260101 C23.74647026 12.13394739 22.26720345 12.14042714 20.788278 12.1637001 C9.77902868 12.32450308 9.77902868 12.32450308 5.30214286 8.99142075 C0 3.21692526 0 3.21692526 0 0 Z " fill="#4389D9" transform="translate(286,583)"/>
<path d="M0 0 C71.94 0 143.88 0 218 0 C202.04015688 11.96988234 178.79067752 16.73969751 159.625 20.8125 C158.71210205 21.00739014 157.7992041 21.20228027 156.85864258 21.40307617 C141.04202676 24.58096524 125.46699699 25.37688934 109.375 25.3125 C108.40444672 25.31034485 107.43389343 25.3081897 106.43392944 25.30596924 C92.10690101 25.25493771 78.07643087 24.91209434 64 22 C63.02224609 21.80132324 62.04449219 21.60264648 61.03710938 21.39794922 C39.9829084 16.99240717 19.18639488 10.83917686 0 1 C0 0.67 0 0.34 0 0 Z " fill="#4389D9" transform="translate(370,649)"/>
<path d="M0 0 C114.18 0 228.36 0 346 0 C337.62137762 10.47327797 337.62137762 10.47327797 332.2490983 11.55274773 C328.79691691 11.78746352 325.39209258 11.81872717 321.9319458 11.78881836 C320.59728786 11.79860392 319.26264688 11.81098715 317.92803454 11.82573414 C314.27072076 11.85848555 310.6142705 11.85390821 306.9568615 11.8429842 C303.0084365 11.83763752 299.06024012 11.86671874 295.11190796 11.89117432 C287.38005762 11.93326373 279.64850728 11.94236512 271.91655591 11.93879855 C265.63007119 11.93618198 259.34367996 11.94379825 253.05721283 11.95864868 C251.24550081 11.96284715 249.43378878 11.96704235 247.62207675 11.97123432 C246.2693959 11.9743649 246.2693959 11.9743649 244.88938817 11.97755873 C227.8371885 12.01535665 210.78516092 12.01326563 193.73293671 11.99962008 C178.14328067 11.98847294 162.55428235 12.03010437 146.96478 12.09634101 C130.94878289 12.16386023 114.93310063 12.1941459 98.91695857 12.18490696 C89.92858017 12.18042162 80.94080943 12.19084238 71.9525528 12.24069214 C64.29903812 12.2827784 56.64646412 12.28984555 48.99291041 12.25209296 C45.09020555 12.23381016 41.18925289 12.23138117 37.28668594 12.27280426 C33.7078067 12.31037019 30.13210487 12.30107545 26.5533441 12.25571263 C24.65793543 12.24345008 22.76240078 12.28001956 20.86734891 12.31878567 C12.19055101 12.14005227 7.85475502 9.21257523 1.92896914 3.24145985 C0 1 0 1 0 0 Z " fill="#4389D9" transform="translate(306,605)"/>
<path d="M0 0 C96.36 0 192.72 0 292 0 C284.97828125 7.02171875 279.04928383 11.62888402 268.9031139 11.80712253 C267.92031718 11.79442032 266.93752046 11.78171811 265.92494202 11.76863098 C264.85426827 11.77869649 263.78359453 11.788762 262.68047613 11.79913253 C259.11599737 11.8252707 255.5530417 11.80883261 251.98852539 11.79223633 C249.42363951 11.80201014 246.85876222 11.81431836 244.29389954 11.82896423 C238.06431317 11.85726532 231.83528406 11.85747779 225.60566551 11.84351341 C220.53969321 11.83267113 215.4738412 11.83323916 210.40786552 11.84183311 C209.32394483 11.8436453 209.32394483 11.8436453 208.21812676 11.84549409 C206.74987111 11.84798489 205.28161549 11.85049588 203.81335991 11.85302683 C190.06311767 11.87527909 176.31310987 11.86006222 162.56289016 11.83244052 C150.78143346 11.80972671 139.00041126 11.82140085 127.21899414 11.85766602 C113.51756252 11.89983708 99.81640011 11.91888709 86.11490434 11.90264148 C84.65191968 11.90098193 83.18893498 11.89935858 81.72595024 11.89777184 C81.00625106 11.89698689 80.28655188 11.89620195 79.54504364 11.89539323 C74.48951912 11.89151243 69.43419376 11.9041817 64.37870979 11.92350197 C57.56496729 11.94912884 50.75211988 11.9376245 43.93842888 11.90151405 C41.441972 11.89387428 38.94544562 11.89808324 36.44903564 11.91518784 C13.66020423 12.0584155 13.66020423 12.0584155 5.91301632 5.89058971 C3.93418018 3.9349518 1.96727122 1.96727122 0 0 Z " fill="#4389D9" transform="translate(333,627)"/>
<path d="M0 0 C16 0 16 0 21 4.875 C22.3616933 6.89786231 23.69485629 8.94019893 25 11 C26.49879612 12.91330297 28.01847685 14.81050491 29.5625 16.6875 C31.2640625 18.8221875 31.2640625 18.8221875 33 21 C33.33 14.07 33.66 7.14 34 0 C39.94 0 45.88 0 52 0 C52 17.49 52 34.98 52 53 C36 53 36 53 31 48.125 C29.6383067 46.10213769 28.30514371 44.05980107 27 42 C25.50120388 40.08669703 23.98152315 38.18949509 22.4375 36.3125 C21.303125 34.889375 20.16875 33.46625 19 32 C18.67 38.93 18.34 45.86 18 53 C12.06 53 6.12 53 0 53 C0 35.51 0 18.02 0 0 Z " fill="#FDFDFD" transform="translate(627,717)"/>
<path d="M0 0 C5.39584715 4.15764223 7.86428048 9.3311227 9.98046875 15.6796875 C10.83822404 25.83213532 9.4285452 32.55683107 3.79296875 40.9296875 C-3.78692133 48.34113558 -11.54832252 49.97571505 -21.80444336 49.99658203 C-30.34207724 49.83999914 -37.23739018 47.24633005 -43.55078125 41.39453125 C-49.18596936 34.81514939 -50.37565687 27.45711687 -50.30078125 19.04296875 C-49.68580178 11.68883922 -46.26454901 5.80814931 -41.01953125 0.6796875 C-28.58466105 -7.54337183 -12.65520626 -8.27361647 0 0 Z M-30.01953125 14.6796875 C-32.04367229 19.28783838 -32.3103217 22.63626293 -30.95703125 27.4921875 C-28.8726821 30.92127803 -27.52884467 32.73006893 -24.01953125 34.6796875 C-18.9734486 35.40055645 -17.07660676 35.28652714 -12.64453125 32.7421875 C-9.17701828 29.38867496 -8.13336968 25.42024496 -8.01953125 20.6796875 C-9.14304281 16.64826368 -10.42565259 14.341438 -13.20703125 11.2421875 C-19.46726196 7.76428155 -25.78159363 8.73000961 -30.01953125 14.6796875 Z " fill="#DEDEDE" transform="translate(611.01953125,721.3203125)"/>
<path d="M0 0 C5.39584715 4.15764223 7.86428048 9.3311227 9.98046875 15.6796875 C10.83822404 25.83213532 9.4285452 32.55683107 3.79296875 40.9296875 C-3.78692133 48.34113558 -11.54832252 49.97571505 -21.80444336 49.99658203 C-30.34207724 49.83999914 -37.23739018 47.24633005 -43.55078125 41.39453125 C-49.18596936 34.81514939 -50.37565687 27.45711687 -50.30078125 19.04296875 C-49.68580178 11.68883922 -46.26454901 5.80814931 -41.01953125 0.6796875 C-28.58466105 -7.54337183 -12.65520626 -8.27361647 0 0 Z M-30.01953125 14.6796875 C-32.04367229 19.28783838 -32.3103217 22.63626293 -30.95703125 27.4921875 C-28.8726821 30.92127803 -27.52884467 32.73006893 -24.01953125 34.6796875 C-18.9734486 35.40055645 -17.07660676 35.28652714 -12.64453125 32.7421875 C-9.17701828 29.38867496 -8.13336968 25.42024496 -8.01953125 20.6796875 C-9.14304281 16.64826368 -10.42565259 14.341438 -13.20703125 11.2421875 C-19.46726196 7.76428155 -25.78159363 8.73000961 -30.01953125 14.6796875 Z " fill="#DEDEDE" transform="translate(369.01953125,721.3203125)"/>
<path d="M0 0 C5.94 0 11.88 0 18 0 C18.03738281 2.32417969 18.07476562 4.64835938 18.11328125 7.04296875 C18.1595442 9.30356041 18.21076028 11.5639896 18.26245117 13.82446289 C18.29562532 15.39076801 18.32368058 16.95719051 18.34643555 18.52368164 C18.38012116 20.78061763 18.43244049 23.03648526 18.48828125 25.29296875 C18.49467117 25.98899704 18.5010611 26.68502533 18.50764465 27.40214539 C18.63689538 31.71378006 19.23450211 34.63328951 22 38 C25.5 38.75 25.5 38.75 29 38 C31.65793761 35.56403808 31.9956319 34.03611881 32.43237305 30.42480469 C32.47360457 29.00751438 32.49918893 27.58970957 32.51171875 26.171875 C32.52966995 25.42286926 32.54762115 24.67386353 32.56611633 23.90216064 C32.62014543 21.51816376 32.65409003 19.1343662 32.6875 16.75 C32.72067975 15.13018064 32.75517003 13.51038756 32.79101562 11.890625 C32.87832785 7.92705587 32.93845437 3.96438763 33 0 C38.94 0 44.88 0 51 0 C51.09231438 5.10549812 51.17179949 10.20804995 51.21972656 15.3137207 C51.2397241 17.04689395 51.26693148 18.78000075 51.30175781 20.51293945 C51.69645109 40.67131792 51.69645109 40.67131792 45.65795898 47.52270508 C39.79322763 52.91615469 33.37641415 54.56781268 25.6875 54.5 C24.94274414 54.49500488 24.19798828 54.49000977 23.43066406 54.48486328 C16.25136586 54.25865767 10.78696314 52.36318393 5.359375 47.54296875 C0.13265078 41.85064553 -0.29218757 35.6250706 -0.1953125 28.3203125 C-0.19106766 27.10116653 -0.19106766 27.10116653 -0.18673706 25.85739136 C-0.17560619 23.27977325 -0.15051515 20.70251181 -0.125 18.125 C-0.11496101 16.36979671 -0.10583677 14.61458794 -0.09765625 12.859375 C-0.07739772 8.5726711 -0.03823645 4.28673142 0 0 Z " fill="#D4D4D4" transform="translate(430,717)"/>
<path d="M0 0 C-0.7830784 2.14898232 -1.57671243 4.29412095 -2.375 6.4375 C-2.81585937 7.63246094 -3.25671875 8.82742188 -3.7109375 10.05859375 C-5 13 -5 13 -7 14 C-8.155 13.525625 -9.31 13.05125 -10.5 12.5625 C-15.34570198 10.60284111 -19.84458991 10.71476215 -25 11 C-25.33 11.99 -25.66 12.98 -26 14 C-25.45585449 14.13051758 -24.91170898 14.26103516 -24.35107422 14.39550781 C-21.85588606 15.00139871 -19.36559899 15.6255243 -16.875 16.25 C-16.0190625 16.45496094 -15.163125 16.65992188 -14.28125 16.87109375 C-7.94729164 18.47894472 -2.94958101 20.14061453 0.875 25.75 C2.66180171 30.9118716 2.69658362 34.95122463 0.9375 40.125 C-2.91070737 45.8352432 -7.27752681 49.29781017 -14 51 C-17.08838728 51.29789209 -20.14881366 51.33270915 -23.25 51.3125 C-24.09175781 51.30976074 -24.93351563 51.30702148 -25.80078125 51.30419922 C-33.27762763 51.1785258 -39.69208592 50.20527606 -46 46 C-44.45730076 41.27934033 -42.92205381 36.58335908 -41 32 C-40.39671875 32.20496094 -39.7934375 32.40992188 -39.171875 32.62109375 C-38.37265625 32.89050781 -37.5734375 33.15992188 -36.75 33.4375 C-35.96109375 33.70433594 -35.1721875 33.97117187 -34.359375 34.24609375 C-30.33155664 35.53312843 -27.00244364 36.11845321 -22.75 36.0625 C-21.85796875 36.05347656 -20.9659375 36.04445313 -20.046875 36.03515625 C-19.03367187 36.01775391 -19.03367187 36.01775391 -18 36 C-18 35.01 -18 34.02 -18 33 C-19.84464844 32.52820313 -19.84464844 32.52820313 -21.7265625 32.046875 C-23.35953043 31.61517083 -24.99233442 31.18284622 -26.625 30.75 C-27.43324219 30.54503906 -28.24148438 30.34007812 -29.07421875 30.12890625 C-35.05424405 28.52450922 -39.62195077 26.61585415 -43.875 21.9375 C-46.08517457 16.16648863 -46.00441624 10.25993653 -43.5 4.625 C-32.36799265 -7.06360772 -13.83123137 -6.82421988 0 0 Z " fill="#CCCCCC" transform="translate(730,720)"/>
<path d="M0 0 C-0.7830784 2.14898232 -1.57671243 4.29412095 -2.375 6.4375 C-2.81585938 7.63246094 -3.25671875 8.82742188 -3.7109375 10.05859375 C-5 13 -5 13 -7 14 C-8.155 13.525625 -9.31 13.05125 -10.5 12.5625 C-15.34570198 10.60284111 -19.84458991 10.71476215 -25 11 C-25.33 11.99 -25.66 12.98 -26 14 C-25.45585449 14.13051758 -24.91170898 14.26103516 -24.35107422 14.39550781 C-21.85588606 15.00139871 -19.36559899 15.6255243 -16.875 16.25 C-16.0190625 16.45496094 -15.163125 16.65992188 -14.28125 16.87109375 C-7.94729164 18.47894472 -2.94958101 20.14061453 0.875 25.75 C2.66180171 30.9118716 2.69658362 34.95122463 0.9375 40.125 C-2.91070737 45.8352432 -7.27752681 49.29781017 -14 51 C-17.08838728 51.29789209 -20.14881366 51.33270915 -23.25 51.3125 C-24.09175781 51.30976074 -24.93351562 51.30702148 -25.80078125 51.30419922 C-33.27762763 51.1785258 -39.69208592 50.20527606 -46 46 C-44.45730076 41.27934033 -42.92205381 36.58335908 -41 32 C-40.39671875 32.20496094 -39.7934375 32.40992188 -39.171875 32.62109375 C-38.37265625 32.89050781 -37.5734375 33.15992188 -36.75 33.4375 C-35.96109375 33.70433594 -35.1721875 33.97117187 -34.359375 34.24609375 C-30.33155664 35.53312843 -27.00244364 36.11845321 -22.75 36.0625 C-21.85796875 36.05347656 -20.9659375 36.04445313 -20.046875 36.03515625 C-19.03367187 36.01775391 -19.03367187 36.01775391 -18 36 C-18 35.01 -18 34.02 -18 33 C-19.84464844 32.52820313 -19.84464844 32.52820313 -21.7265625 32.046875 C-23.35953043 31.61517083 -24.99233442 31.18284622 -26.625 30.75 C-27.43324219 30.54503906 -28.24148438 30.34007812 -29.07421875 30.12890625 C-35.05424405 28.52450922 -39.62195077 26.61585415 -43.875 21.9375 C-46.08517457 16.16648863 -46.00441624 10.25993653 -43.5 4.625 C-32.36799265 -7.06360772 -13.83123137 -6.82421988 0 0 Z " fill="#CCCCCC" transform="translate(314,720)"/>
<path d="M0 0 C16.17 0 32.34 0 49 0 C49 4.62 49 9.24 49 14 C44.05 14 39.1 14 34 14 C34 26.87 34 39.74 34 53 C28.06 53 22.12 53 16 53 C16 40.13 16 27.26 16 14 C10.72 14 5.44 14 0 14 C0 9.38 0 4.76 0 0 Z " fill="#D5D5D5" transform="translate(484,717)"/>
<path d="M0 0 C5.94 0 11.88 0 18 0 C18 12.87 18 25.74 18 39 C25.92 39 33.84 39 42 39 C42 43.62 42 48.24 42 53 C28.14 53 14.28 53 0 53 C0 35.51 0 18.02 0 0 Z " fill="#D5D5D5" transform="translate(384,717)"/>
<path d="M0 0 C5.94 0 11.88 0 18 0 C18 17.49 18 34.98 18 53 C12.06 53 6.12 53 0 53 C0 35.51 0 18.02 0 0 Z " fill="#D6D6D6" transform="translate(537,717)"/>
<path d="M0 0 C3.8053125 -0.12375 3.8053125 -0.12375 7.6875 -0.25 C8.87218872 -0.30462402 8.87218872 -0.30462402 10.08081055 -0.36035156 C13.90260839 -0.42027101 15.63709783 -0.23202728 18.95703125 1.890625 C22.0501823 5.08431825 22.45015756 7.49194649 22.42578125 11.9609375 C21.64170319 15.71588015 19.10042959 16.95371647 16 19 C11.53794887 21.23102556 4.78092876 20.04346299 0 20 C0 13.4 0 6.8 0 0 Z " fill="#1D3041" transform="translate(585,408)"/>
<path d="M0 0 C16 0 16 0 21 4.875 C22.3616933 6.89786231 23.69485629 8.94019893 25 11 C26.49879612 12.91330297 28.01847685 14.81050491 29.5625 16.6875 C31.2640625 18.8221875 31.2640625 18.8221875 33 21 C33.33 14.07 33.66 7.14 34 0 C39.94 0 45.88 0 52 0 C52 17.49 52 34.98 52 53 C36 53 36 53 31 48.125 C29.6383067 46.10213769 28.30514371 44.05980107 27 42 C25.50120388 40.08669703 23.98152315 38.18949509 22.4375 36.3125 C21.303125 34.889375 20.16875 33.46625 19 32 C18.67 38.93 18.34 45.86 18 53 C12.06 53 6.12 53 0 53 C0 35.51 0 18.02 0 0 Z M1 1 C1 17.83 1 34.66 1 52 C5.95 52 10.9 52 16 52 C16 44.41 16 36.82 16 29 C20.47037532 31.68222519 22.24596161 33.18951563 25.3125 37.125 C26.09753906 38.09308594 26.88257813 39.06117188 27.69140625 40.05859375 C29.14393157 41.90927322 30.55487369 43.79414161 31.90234375 45.72265625 C33.93857633 48.60607017 33.93857633 48.60607017 38 52 C42.29 52 46.58 52 51 52 C51 35.17 51 18.34 51 1 C46.05 1 41.1 1 36 1 C36 8.59 36 16.18 36 24 C31.52962468 21.31777481 29.75403839 19.81048437 26.6875 15.875 C25.90246094 14.90691406 25.11742187 13.93882812 24.30859375 12.94140625 C22.85606843 11.09072678 21.44512631 9.20585839 20.09765625 7.27734375 C18.06142367 4.39392983 18.06142367 4.39392983 14 1 C9.71 1 5.42 1 1 1 Z " fill="#000000" transform="translate(627,717)"/>
<path d="M0 0 C2.625 2.0625 2.625 2.0625 4 5 C4.19902256 8.52064053 3.92381908 11.79257688 1.71484375 14.6796875 C-1.46727935 17.12970483 -5.08329864 17.31553111 -9 17 C-12.0625 15.125 -12.0625 15.125 -14 12 C-14.6789476 8.84092978 -14.71090341 6.15500109 -14 3 C-10.30082318 -2.01178795 -5.53642686 -1.75268634 0 0 Z " fill="#172B3C" transform="translate(686,436)"/>
<path d="M0 0 C3.40524375 0.68104875 4.52547983 1.6479153 6.5 4.5 C7 8.0625 7 8.0625 6.5 11.5 C4.9375 13.5 4.9375 13.5 2.5 14.5 C-3.82727273 14.17272727 -3.82727273 14.17272727 -6.5 11.5 C-6.93662786 7.5703493 -7.09751439 5.36307634 -4.8125 2.0625 C-2.5 0.5 -2.5 0.5 0 0 Z " fill="#1E3041" transform="translate(680.5,402.5)"/>
<path d="M0 0 C3.20995375 1.61172047 4.98585289 3.05056308 7.109375 5.99609375 C8.91197177 11.61595426 9.26459581 16.80500821 6.546875 22.18359375 C3.8617784 25.71661559 2.41239412 27.02843704 -1.828125 28.30859375 C-6.76569931 28.58774989 -9.87411335 28.07992231 -13.765625 24.93359375 C-18.22099558 19.2631221 -18.63886428 15.3924282 -17.828125 8.30859375 C-16.0060314 4.38408446 -14.55625179 2.78345905 -10.953125 0.43359375 C-6.95006466 -1.00750797 -4.06322624 -1.536733 0 0 Z M-14.828125 6.30859375 C-16.85226604 10.91674463 -17.11891545 14.26516918 -15.765625 19.12109375 C-13.68127585 22.55018428 -12.33743842 24.35897518 -8.828125 26.30859375 C-3.78204235 27.0294627 -1.88520051 26.91543339 2.546875 24.37109375 C6.01438797 21.01758121 7.05803657 17.04915121 7.171875 12.30859375 C6.04836344 8.27716993 4.76575366 5.97034425 1.984375 2.87109375 C-4.27585571 -0.6068122 -10.59018738 0.35891586 -14.828125 6.30859375 Z " fill="#242424" transform="translate(595.828125,729.69140625)"/>
<path d="M0 0 C3.20995375 1.61172047 4.98585289 3.05056308 7.109375 5.99609375 C8.91197177 11.61595426 9.26459581 16.80500821 6.546875 22.18359375 C3.8617784 25.71661559 2.41239412 27.02843704 -1.828125 28.30859375 C-6.76569931 28.58774989 -9.87411335 28.07992231 -13.765625 24.93359375 C-18.22099558 19.2631221 -18.63886428 15.3924282 -17.828125 8.30859375 C-16.0060314 4.38408446 -14.55625179 2.78345905 -10.953125 0.43359375 C-6.95006466 -1.00750797 -4.06322624 -1.536733 0 0 Z M-14.828125 6.30859375 C-16.85226604 10.91674463 -17.11891545 14.26516918 -15.765625 19.12109375 C-13.68127585 22.55018428 -12.33743842 24.35897518 -8.828125 26.30859375 C-3.78204235 27.0294627 -1.88520051 26.91543339 2.546875 24.37109375 C6.01438797 21.01758121 7.05803657 17.04915121 7.171875 12.30859375 C6.04836344 8.27716993 4.76575366 5.97034425 1.984375 2.87109375 C-4.27585571 -0.6068122 -10.59018738 0.35891586 -14.828125 6.30859375 Z " fill="#242424" transform="translate(353.828125,729.69140625)"/>
<path d="M0 0 C5.10204336 2.04081734 7.16371917 4.08104138 10.4375 8.1875 C11.40077573 9.36480097 12.36431541 10.54188604 13.328125 11.71875 C13.78638672 12.28464844 14.24464844 12.85054687 14.71679688 13.43359375 C16.32447432 15.39608585 18.00121226 17.29243377 19.6875 19.1875 C22 22 22 22 22 24 C21.34 24 20.68 24 20 24 C18.56187327 22.43059199 17.1996995 20.79125965 15.875 19.125 C15.07707031 18.12984375 14.27914062 17.1346875 13.45703125 16.109375 C11.86943368 14.10026901 10.28338608 12.08993682 8.69921875 10.078125 C7.99410156 9.18609375 7.28898438 8.2940625 6.5625 7.375 C5.92441406 6.55773437 5.28632812 5.74046875 4.62890625 4.8984375 C3.1302192 2.90361433 3.1302192 2.90361433 1 2 C1 8.93 1 15.86 1 23 C0.67 23 0.34 23 0 23 C0 15.41 0 7.82 0 0 Z " fill="#2D2D2D" transform="translate(643,746)"/>
<path d="M0 0 C3.98366362 3.86584732 7.60515584 7.94979499 11.1875 12.1875 C12.24275968 13.43160906 13.2987192 14.67512494 14.35546875 15.91796875 C14.81590576 16.46219482 15.27634277 17.0064209 15.75073242 17.56713867 C16.78615638 18.75472968 17.88589157 19.88589157 19 21 C19.33 14.4 19.66 7.8 20 1 C20.33 1 20.66 1 21 1 C21 8.59 21 16.18 21 24 C16.50007016 22.87501754 16.50007016 22.87501754 14.16015625 20.05078125 C13.65419922 19.44943359 13.14824219 18.84808594 12.62695312 18.22851562 C12.11068359 17.59623047 11.59441406 16.96394531 11.0625 16.3125 C10.55009766 15.69955078 10.03769531 15.08660156 9.50976562 14.45507812 C8.49152006 13.23499481 7.47921049 12.00993093 6.47314453 10.77978516 C5.50298964 9.60768884 4.51458032 8.45042934 3.50732422 7.31005859 C0 3.31351268 0 3.31351268 0 0 Z " fill="#2D2D2D" transform="translate(642,717)"/>
<path d="M0 0 C0.66 0.33 1.32 0.66 2 1 C2.53821917 7.59318487 2.0576014 11.66105079 -2 17 C-5.54021412 19.63457795 -8.25231844 20.22911264 -12.5625 20 C-17.0229049 19.34450131 -19.17432678 17.55487922 -22 14 C-21.67 13.01 -21.34 12.02 -21 11 C-20.071875 12.2065625 -20.071875 12.2065625 -19.125 13.4375 C-17.25835959 16.03874519 -17.25835959 16.03874519 -15 17 C-10.60999398 17.35983656 -8.07257836 17.53628918 -4.125 15.5625 C-0.34615112 11.00565282 0 5.77601119 0 0 Z " fill="#242424" transform="translate(602,738)"/>
<path d="M0 0 C0.66 0.33 1.32 0.66 2 1 C2.53821917 7.59318487 2.0576014 11.66105079 -2 17 C-5.54021412 19.63457795 -8.25231844 20.22911264 -12.5625 20 C-17.0229049 19.34450131 -19.17432678 17.55487922 -22 14 C-21.67 13.01 -21.34 12.02 -21 11 C-20.071875 12.2065625 -20.071875 12.2065625 -19.125 13.4375 C-17.25835959 16.03874519 -17.25835959 16.03874519 -15 17 C-10.60999398 17.35983656 -8.07257836 17.53628918 -4.125 15.5625 C-0.34615112 11.00565282 0 5.77601119 0 0 Z " fill="#242424" transform="translate(360,738)"/>
<path d="M0 0 C0.66 0.33 1.32 0.66 2 1 C2.53877102 7.59994499 1.94343357 11.59186253 -2 17 C-2.99 17.33 -3.98 17.66 -5 18 C-4.731875 17.484375 -4.46375 16.96875 -4.1875 16.4375 C-3.795625 15.633125 -3.40375 14.82875 -3 14 C-2.46375 12.906875 -1.9275 11.81375 -1.375 10.6875 C0.05969945 6.83989693 0.24898293 4.06672121 0 0 Z " fill="#191919" transform="translate(602,738)"/>
<path d="M0 0 C0.66 0.33 1.32 0.66 2 1 C2.53877102 7.59994499 1.94343357 11.59186253 -2 17 C-2.99 17.33 -3.98 17.66 -5 18 C-4.731875 17.484375 -4.46375 16.96875 -4.1875 16.4375 C-3.795625 15.633125 -3.40375 14.82875 -3 14 C-2.46375 12.906875 -1.9275 11.81375 -1.375 10.6875 C0.05969945 6.83989693 0.24898293 4.06672121 0 0 Z " fill="#191919" transform="translate(360,738)"/>
<path d="M0 0 C1.1725131 0.95117134 2.33787015 1.91117009 3.5 2.875 C4.47453125 3.67550781 4.47453125 3.67550781 5.46875 4.4921875 C5.9740625 4.98976563 6.479375 5.48734375 7 6 C7 6.66 7 7.32 7 8 C3.34683329 6.75023244 2.21934164 6.32901247 0 3 C0 2.01 0 1.02 0 0 Z " fill="#1E1E1E" transform="translate(580,749)"/>
<path d="M0 0 C1.1725131 0.95117134 2.33787015 1.91117009 3.5 2.875 C4.47453125 3.67550781 4.47453125 3.67550781 5.46875 4.4921875 C5.9740625 4.98976563 6.479375 5.48734375 7 6 C7 6.66 7 7.32 7 8 C3.34683329 6.75023244 2.21934164 6.32901247 0 3 C0 2.01 0 1.02 0 0 Z " fill="#1E1E1E" transform="translate(338,749)"/>
</svg>
